<svg id="visual" viewBox="0 0 900 600" width="900" height="600" xmlns="http://www.w3.org/2000/svg" xmlns:xlink="http://www.w3.org/1999/xlink" version="1.1"><rect x="0" y="0" width="900" height="600" fill="#140021"></rect><path d="M0 369L129 369L129 334L257 334L257 360L386 360L386 330L514 330L514 350L643 350L643 319L771 319L771 295L900 295L900 275L900 601L900 601L771 601L771 601L643 601L643 601L514 601L514 601L386 601L386 601L257 601L257 601L129 601L129 601L0 601Z" fill="#790dc1"></path><path d="M0 371L129 371L129 376L257 376L257 372L386 372L386 461L514 461L514 370L643 370L643 402L771 402L771 437L900 437L900 348L900 601L900 601L771 601L771 601L643 601L643 601L514 601L514 601L386 601L386 601L257 601L257 601L129 601L129 601L0 601Z" fill="#6705a8"></path><path d="M0 444L129 444L129 539L257 539L257 500L386 500L386 530L514 530L514 533L643 533L643 541L771 541L771 445L900 445L900 453L900 601L900 601L771 601L771 601L643 601L643 601L514 601L514 601L386 601L386 601L257 601L257 601L129 601L129 601L0 601Z" fill="#560090"></path></svg>